<svg xmlns="http://www.w3.org/2000/svg" version="1.1" xmlns:xlink="http://www.w3.org/1999/xlink" xmlns:svgjs="http://svgjs.dev/svgjs" width="1440" height="560" preserveAspectRatio="none" viewBox="0 0 1440 560"><g mask="url(&quot;#SvgjsMask1190&quot;)" fill="none"><rect width="1440" height="560" x="0" y="0" fill="rgba(9, 21, 53, 1)"></rect><g mask="url(&quot;#SvgjsMask1191&quot;)"><path d="M985.5 229.5L526.5 229.5L472.5 283.5" stroke-width="4.5" stroke="rgba(69, 76, 90, 1)"></path><path d="M978.75 229.5 a6.75 6.75 0 1 0 13.5 0 a6.75 6.75 0 1 0 -13.5 0zM465.75 283.5 a6.75 6.75 0 1 0 13.5 0 a6.75 6.75 0 1 0 -13.5 0z" fill="rgba(69, 76, 90, 1)"></path><path d="M742.5 310.5L742.5 553.5" stroke-width="4.5" stroke="rgba(69, 76, 90, 1)"></path><path d="M735.75 310.5 a6.75 6.75 0 1 0 13.5 0 a6.75 6.75 0 1 0 -13.5 0zM735.75 553.5 a6.75 6.75 0 1 0 13.5 0 a6.75 6.75 0 1 0 -13.5 0z" fill="rgba(69, 76, 90, 1)"></path><path d="M364.5 202.5L364.5 13.5" stroke-width="4.5" stroke="rgba(69, 76, 90, 1)"></path><path d="M357.75 202.5 a6.75 6.75 0 1 0 13.5 0 a6.75 6.75 0 1 0 -13.5 0zM357.75 13.5 a6.75 6.75 0 1 0 13.5 0 a6.75 6.75 0 1 0 -13.5 0z" fill="rgba(69, 76, 90, 1)"></path><path d="M256.5 13.5L256.5 94.5L337.5 175.5L337.5 472.5L364.5 499.5L391.5 499.5" stroke-width="4.5" stroke="rgba(69, 76, 90, 1)"></path><path d="M249.75 13.5 a6.75 6.75 0 1 0 13.5 0 a6.75 6.75 0 1 0 -13.5 0zM384.75 499.5 a6.75 6.75 0 1 0 13.5 0 a6.75 6.75 0 1 0 -13.5 0z" fill="rgba(69, 76, 90, 1)"></path><path d="M283.5 499.5L283.5 472.5L40.5 229.5L40.5 175.5L202.5 13.5L229.5 13.5" stroke-width="4.5" stroke="rgba(69, 76, 90, 1)"></path><path d="M276.75 499.5 a6.75 6.75 0 1 0 13.5 0 a6.75 6.75 0 1 0 -13.5 0zM222.75 13.5 a6.75 6.75 0 1 0 13.5 0 a6.75 6.75 0 1 0 -13.5 0z" fill="rgba(69, 76, 90, 1)"></path><path d="M1309.5 364.5L1444.5 229.5L1444.5 13.5" stroke-width="4.5" stroke="rgba(69, 76, 90, 1)"></path><path d="M1302.75 364.5 a6.75 6.75 0 1 0 13.5 0 a6.75 6.75 0 1 0 -13.5 0zM1437.75 13.5 a6.75 6.75 0 1 0 13.5 0 a6.75 6.75 0 1 0 -13.5 0z" fill="rgba(69, 76, 90, 1)"></path><path d="M607.5 391.5L526.5 472.5L499.5 472.5L418.5 391.5L364.5 391.5" stroke-width="4.5" stroke="rgba(69, 76, 90, 1)"></path><path d="M600.75 391.5 a6.75 6.75 0 1 0 13.5 0 a6.75 6.75 0 1 0 -13.5 0zM357.75 391.5 a6.75 6.75 0 1 0 13.5 0 a6.75 6.75 0 1 0 -13.5 0z" fill="rgba(69, 76, 90, 1)"></path><path d="M1336.5 418.5L1309.5 391.5L1201.5 391.5L850.5 40.5L823.5 40.5" stroke-width="4.5" stroke="rgba(69, 76, 90, 1)"></path><path d="M1329.75 418.5 a6.75 6.75 0 1 0 13.5 0 a6.75 6.75 0 1 0 -13.5 0zM816.75 40.5 a6.75 6.75 0 1 0 13.5 0 a6.75 6.75 0 1 0 -13.5 0z" fill="rgba(69, 76, 90, 1)"></path><path d="M1093.5 553.5L769.5 553.5" stroke-width="4.5" stroke="rgba(69, 76, 90, 1)"></path><path d="M1086.75 553.5 a6.75 6.75 0 1 0 13.5 0 a6.75 6.75 0 1 0 -13.5 0zM762.75 553.5 a6.75 6.75 0 1 0 13.5 0 a6.75 6.75 0 1 0 -13.5 0z" fill="rgba(69, 76, 90, 1)"></path><path d="M175.5 283.5L283.5 175.5L283.5 148.5L202.5 67.5L202.5 40.5" stroke-width="4.5" stroke="rgba(69, 76, 90, 1)"></path><path d="M168.75 283.5 a6.75 6.75 0 1 0 13.5 0 a6.75 6.75 0 1 0 -13.5 0zM195.75 40.5 a6.75 6.75 0 1 0 13.5 0 a6.75 6.75 0 1 0 -13.5 0z" fill="rgba(69, 76, 90, 1)"></path><path d="M418.5 499.5L364.5 445.5L364.5 418.5" stroke-width="4.5" stroke="rgba(69, 76, 90, 1)"></path><path d="M411.75 499.5 a6.75 6.75 0 1 0 13.5 0 a6.75 6.75 0 1 0 -13.5 0zM357.75 418.5 a6.75 6.75 0 1 0 13.5 0 a6.75 6.75 0 1 0 -13.5 0z" fill="rgba(69, 76, 90, 1)"></path><path d="M715.5 310.5L364.5 310.5" stroke-width="4.5" stroke="rgba(69, 76, 90, 1)"></path><path d="M708.75 310.5 a6.75 6.75 0 1 0 13.5 0 a6.75 6.75 0 1 0 -13.5 0zM357.75 310.5 a6.75 6.75 0 1 0 13.5 0 a6.75 6.75 0 1 0 -13.5 0z" fill="rgba(69, 76, 90, 1)"></path><path d="M1363.5 391.5L1363.5 337.5L1444.5 256.5" stroke-width="4.5" stroke="rgba(69, 76, 90, 1)"></path><path d="M1356.75 391.5 a6.75 6.75 0 1 0 13.5 0 a6.75 6.75 0 1 0 -13.5 0zM1437.75 256.5 a6.75 6.75 0 1 0 13.5 0 a6.75 6.75 0 1 0 -13.5 0z" fill="rgba(69, 76, 90, 1)"></path><path d="M985.5 94.5L904.5 13.5L823.5 13.5L796.5 40.5L661.5 40.5L634.5 13.5L553.5 13.5L472.5 94.5" stroke-width="4.5" stroke="rgba(69, 76, 90, 1)"></path><path d="M978.75 94.5 a6.75 6.75 0 1 0 13.5 0 a6.75 6.75 0 1 0 -13.5 0zM465.75 94.5 a6.75 6.75 0 1 0 13.5 0 a6.75 6.75 0 1 0 -13.5 0z" fill="rgba(69, 76, 90, 1)"></path><path d="M67.5 391.5L67.5 418.5L94.5 445.5L175.5 445.5L202.5 418.5" stroke-width="4.5" stroke="rgba(69, 76, 90, 1)"></path><path d="M60.75 391.5 a6.75 6.75 0 1 0 13.5 0 a6.75 6.75 0 1 0 -13.5 0zM195.75 418.5 a6.75 6.75 0 1 0 13.5 0 a6.75 6.75 0 1 0 -13.5 0z" fill="rgba(69, 76, 90, 1)"></path><path d="M1336.5 256.5L1093.5 13.5L931.5 13.5" stroke-width="4.5" stroke="rgba(69, 76, 90, 1)"></path><path d="M1329.75 256.5 a6.75 6.75 0 1 0 13.5 0 a6.75 6.75 0 1 0 -13.5 0zM924.75 13.5 a6.75 6.75 0 1 0 13.5 0 a6.75 6.75 0 1 0 -13.5 0z" fill="rgba(69, 76, 90, 1)"></path><path d="M121.5 121.5L148.5 94.5L202.5 94.5L256.5 148.5L256.5 175.5L175.5 256.5L94.5 256.5L67.5 229.5L67.5 175.5L94.5 148.5L148.5 148.5L175.5 121.5" stroke-width="4.5" stroke="rgba(69, 76, 90, 1)"></path><path d="M114.75 121.5 a6.75 6.75 0 1 0 13.5 0 a6.75 6.75 0 1 0 -13.5 0zM168.75 121.5 a6.75 6.75 0 1 0 13.5 0 a6.75 6.75 0 1 0 -13.5 0z" fill="rgba(69, 76, 90, 1)"></path><path d="M1390.5 67.5L1201.5 67.5L1147.5 13.5L1120.5 13.5" stroke-width="4.5" stroke="rgba(69, 76, 90, 1)"></path><path d="M1383.75 67.5 a6.75 6.75 0 1 0 13.5 0 a6.75 6.75 0 1 0 -13.5 0zM1113.75 13.5 a6.75 6.75 0 1 0 13.5 0 a6.75 6.75 0 1 0 -13.5 0z" fill="rgba(69, 76, 90, 1)"></path><path d="M634.5 94.5L661.5 67.5L850.5 67.5L877.5 94.5L877.5 202.5" stroke-width="4.5" stroke="rgba(69, 76, 90, 1)"></path><path d="M627.75 94.5 a6.75 6.75 0 1 0 13.5 0 a6.75 6.75 0 1 0 -13.5 0zM870.75 202.5 a6.75 6.75 0 1 0 13.5 0 a6.75 6.75 0 1 0 -13.5 0z" fill="rgba(69, 76, 90, 1)"></path><path d="M850.5 526.5L1120.5 526.5L1228.5 418.5L1309.5 418.5L1363.5 472.5" stroke-width="4.5" stroke="rgba(69, 76, 90, 1)"></path><path d="M843.75 526.5 a6.75 6.75 0 1 0 13.5 0 a6.75 6.75 0 1 0 -13.5 0zM1356.75 472.5 a6.75 6.75 0 1 0 13.5 0 a6.75 6.75 0 1 0 -13.5 0z" fill="rgba(69, 76, 90, 1)"></path><path d="M1390.5 256.5L1228.5 94.5L1201.5 94.5" stroke-width="4.5" stroke="rgba(69, 76, 90, 1)"></path><path d="M1383.75 256.5 a6.75 6.75 0 1 0 13.5 0 a6.75 6.75 0 1 0 -13.5 0zM1194.75 94.5 a6.75 6.75 0 1 0 13.5 0 a6.75 6.75 0 1 0 -13.5 0z" fill="rgba(69, 76, 90, 1)"></path><path d="M1120.5 94.5L1093.5 121.5L1039.5 121.5L958.5 40.5" stroke-width="4.5" stroke="rgba(69, 76, 90, 1)"></path><path d="M1113.75 94.5 a6.75 6.75 0 1 0 13.5 0 a6.75 6.75 0 1 0 -13.5 0zM951.75 40.5 a6.75 6.75 0 1 0 13.5 0 a6.75 6.75 0 1 0 -13.5 0z" fill="rgba(69, 76, 90, 1)"></path><path d="M823.5 94.5L823.5 175.5L850.5 202.5" stroke-width="4.5" stroke="rgba(69, 76, 90, 1)"></path><path d="M816.75 94.5 a6.75 6.75 0 1 0 13.5 0 a6.75 6.75 0 1 0 -13.5 0zM843.75 202.5 a6.75 6.75 0 1 0 13.5 0 a6.75 6.75 0 1 0 -13.5 0z" fill="rgba(69, 76, 90, 1)"></path><path d="M769.5 121.5L688.5 202.5L445.5 202.5L364.5 283.5" stroke-width="4.5" stroke="rgba(69, 76, 90, 1)"></path><path d="M762.75 121.5 a6.75 6.75 0 1 0 13.5 0 a6.75 6.75 0 1 0 -13.5 0zM357.75 283.5 a6.75 6.75 0 1 0 13.5 0 a6.75 6.75 0 1 0 -13.5 0z" fill="rgba(69, 76, 90, 1)"></path><path d="M40.5 337.5L40.5 553.5" stroke-width="4.5" stroke="rgba(69, 76, 90, 1)"></path><path d="M33.75 337.5 a6.75 6.75 0 1 0 13.5 0 a6.75 6.75 0 1 0 -13.5 0zM33.75 553.5 a6.75 6.75 0 1 0 13.5 0 a6.75 6.75 0 1 0 -13.5 0z" fill="rgba(69, 76, 90, 1)"></path><path d="M499.5 121.5L499.5 175.5" stroke-width="4.5" stroke="rgba(69, 76, 90, 1)"></path><path d="M492.75 121.5 a6.75 6.75 0 1 0 13.5 0 a6.75 6.75 0 1 0 -13.5 0zM492.75 175.5 a6.75 6.75 0 1 0 13.5 0 a6.75 6.75 0 1 0 -13.5 0z" fill="rgba(69, 76, 90, 1)"></path><path d="M1201.5 337.5L1039.5 175.5L1039.5 148.5L1012.5 121.5L958.5 121.5L877.5 40.5" stroke-width="4.5" stroke="rgba(69, 76, 90, 1)"></path><path d="M1194.75 337.5 a6.75 6.75 0 1 0 13.5 0 a6.75 6.75 0 1 0 -13.5 0zM870.75 40.5 a6.75 6.75 0 1 0 13.5 0 a6.75 6.75 0 1 0 -13.5 0z" fill="rgba(69, 76, 90, 1)"></path><path d="M472.5 391.5L472.5 418.5L499.5 445.5L526.5 445.5L553.5 418.5L553.5 337.5" stroke-width="4.5" stroke="rgba(69, 76, 90, 1)"></path><path d="M465.75 391.5 a6.75 6.75 0 1 0 13.5 0 a6.75 6.75 0 1 0 -13.5 0zM546.75 337.5 a6.75 6.75 0 1 0 13.5 0 a6.75 6.75 0 1 0 -13.5 0z" fill="rgba(69, 76, 90, 1)"></path><path d="M1363.5 148.5L1417.5 94.5L1417.5 67.5L1363.5 13.5L1228.5 13.5L1201.5 40.5" stroke-width="4.5" stroke="rgba(69, 76, 90, 1)"></path><path d="M1356.75 148.5 a6.75 6.75 0 1 0 13.5 0 a6.75 6.75 0 1 0 -13.5 0zM1194.75 40.5 a6.75 6.75 0 1 0 13.5 0 a6.75 6.75 0 1 0 -13.5 0z" fill="rgba(69, 76, 90, 1)"></path><path d="M985.5 337.5L1012.5 337.5L1066.5 283.5" stroke-width="4.5" stroke="rgba(69, 76, 90, 1)"></path><path d="M978.75 337.5 a6.75 6.75 0 1 0 13.5 0 a6.75 6.75 0 1 0 -13.5 0zM1059.75 283.5 a6.75 6.75 0 1 0 13.5 0 a6.75 6.75 0 1 0 -13.5 0z" fill="rgba(69, 76, 90, 1)"></path><path d="M985.5 391.5L850.5 256.5L526.5 256.5L499.5 283.5" stroke-width="4.5" stroke="rgba(69, 76, 90, 1)"></path><path d="M978.75 391.5 a6.75 6.75 0 1 0 13.5 0 a6.75 6.75 0 1 0 -13.5 0zM492.75 283.5 a6.75 6.75 0 1 0 13.5 0 a6.75 6.75 0 1 0 -13.5 0z" fill="rgba(69, 76, 90, 1)"></path><path d="M634.5 148.5L688.5 94.5L796.5 94.5" stroke-width="4.5" stroke="rgba(69, 76, 90, 1)"></path><path d="M627.75 148.5 a6.75 6.75 0 1 0 13.5 0 a6.75 6.75 0 1 0 -13.5 0zM789.75 94.5 a6.75 6.75 0 1 0 13.5 0 a6.75 6.75 0 1 0 -13.5 0z" fill="rgba(69, 76, 90, 1)"></path><path d="M202.5 445.5L310.5 553.5L580.5 553.5L715.5 418.5" stroke-width="4.5" stroke="rgba(69, 76, 90, 1)"></path><path d="M195.75 445.5 a6.75 6.75 0 1 0 13.5 0 a6.75 6.75 0 1 0 -13.5 0zM708.75 418.5 a6.75 6.75 0 1 0 13.5 0 a6.75 6.75 0 1 0 -13.5 0z" fill="rgba(69, 76, 90, 1)"></path><path d="M229.5 364.5L283.5 364.5L310.5 337.5L310.5 175.5" stroke-width="4.5" stroke="rgba(69, 76, 90, 1)"></path><path d="M222.75 364.5 a6.75 6.75 0 1 0 13.5 0 a6.75 6.75 0 1 0 -13.5 0zM303.75 175.5 a6.75 6.75 0 1 0 13.5 0 a6.75 6.75 0 1 0 -13.5 0z" fill="rgba(69, 76, 90, 1)"></path><path d="M580.5 364.5L607.5 337.5L715.5 337.5" stroke-width="4.5" stroke="rgba(69, 76, 90, 1)"></path><path d="M573.75 364.5 a6.75 6.75 0 1 0 13.5 0 a6.75 6.75 0 1 0 -13.5 0zM708.75 337.5 a6.75 6.75 0 1 0 13.5 0 a6.75 6.75 0 1 0 -13.5 0z" fill="rgba(69, 76, 90, 1)"></path><path d="M148.5 175.5L175.5 202.5L202.5 202.5L229.5 175.5L229.5 148.5L202.5 121.5" stroke-width="4.5" stroke="rgba(69, 76, 90, 1)"></path><path d="M141.75 175.5 a6.75 6.75 0 1 0 13.5 0 a6.75 6.75 0 1 0 -13.5 0zM195.75 121.5 a6.75 6.75 0 1 0 13.5 0 a6.75 6.75 0 1 0 -13.5 0z" fill="rgba(69, 76, 90, 1)"></path><path d="M1039.5 256.5L958.5 337.5" stroke-width="4.5" stroke="rgba(69, 76, 90, 1)"></path><path d="M1032.75 256.5 a6.75 6.75 0 1 0 13.5 0 a6.75 6.75 0 1 0 -13.5 0zM951.75 337.5 a6.75 6.75 0 1 0 13.5 0 a6.75 6.75 0 1 0 -13.5 0z" fill="rgba(69, 76, 90, 1)"></path><path d="M877.5 391.5L904.5 391.5L931.5 364.5" stroke-width="4.5" stroke="rgba(69, 76, 90, 1)"></path><path d="M870.75 391.5 a6.75 6.75 0 1 0 13.5 0 a6.75 6.75 0 1 0 -13.5 0zM924.75 364.5 a6.75 6.75 0 1 0 13.5 0 a6.75 6.75 0 1 0 -13.5 0z" fill="rgba(69, 76, 90, 1)"></path><path d="M1120.5 418.5L796.5 418.5L769.5 445.5L769.5 526.5" stroke-width="4.5" stroke="rgba(69, 76, 90, 1)"></path><path d="M1113.75 418.5 a6.75 6.75 0 1 0 13.5 0 a6.75 6.75 0 1 0 -13.5 0zM762.75 526.5 a6.75 6.75 0 1 0 13.5 0 a6.75 6.75 0 1 0 -13.5 0z" fill="rgba(69, 76, 90, 1)"></path><path d="M283.5 337.5L175.5 337.5L121.5 283.5" stroke-width="4.5" stroke="rgba(69, 76, 90, 1)"></path><path d="M276.75 337.5 a6.75 6.75 0 1 0 13.5 0 a6.75 6.75 0 1 0 -13.5 0zM114.75 283.5 a6.75 6.75 0 1 0 13.5 0 a6.75 6.75 0 1 0 -13.5 0z" fill="rgba(69, 76, 90, 1)"></path><path d="M769.5 148.5L715.5 202.5" stroke-width="4.5" stroke="rgba(69, 76, 90, 1)"></path><path d="M762.75 148.5 a6.75 6.75 0 1 0 13.5 0 a6.75 6.75 0 1 0 -13.5 0zM708.75 202.5 a6.75 6.75 0 1 0 13.5 0 a6.75 6.75 0 1 0 -13.5 0z" fill="rgba(69, 76, 90, 1)"></path><path d="M418.5 121.5L472.5 67.5L472.5 13.5" stroke-width="4.5" stroke="rgba(69, 76, 90, 1)"></path><path d="M411.75 121.5 a6.75 6.75 0 1 0 13.5 0 a6.75 6.75 0 1 0 -13.5 0zM465.75 13.5 a6.75 6.75 0 1 0 13.5 0 a6.75 6.75 0 1 0 -13.5 0z" fill="rgba(69, 76, 90, 1)"></path><path d="M850.5 499.5L796.5 445.5" stroke-width="4.5" stroke="rgba(69, 76, 90, 1)"></path><path d="M843.75 499.5 a6.75 6.75 0 1 0 13.5 0 a6.75 6.75 0 1 0 -13.5 0zM789.75 445.5 a6.75 6.75 0 1 0 13.5 0 a6.75 6.75 0 1 0 -13.5 0z" fill="rgba(69, 76, 90, 1)"></path><path d="M40.5 67.5L94.5 13.5L175.5 13.5" stroke-width="4.5" stroke="rgba(69, 76, 90, 1)"></path><path d="M33.75 67.5 a6.75 6.75 0 1 0 13.5 0 a6.75 6.75 0 1 0 -13.5 0zM168.75 13.5 a6.75 6.75 0 1 0 13.5 0 a6.75 6.75 0 1 0 -13.5 0z" fill="rgba(69, 76, 90, 1)"></path><path d="M661.5 283.5L526.5 283.5" stroke-width="4.5" stroke="rgba(69, 76, 90, 1)"></path><path d="M654.75 283.5 a6.75 6.75 0 1 0 13.5 0 a6.75 6.75 0 1 0 -13.5 0zM519.75 283.5 a6.75 6.75 0 1 0 13.5 0 a6.75 6.75 0 1 0 -13.5 0z" fill="rgba(69, 76, 90, 1)"></path><path d="M1147.5 391.5L1174.5 418.5L1201.5 418.5" stroke-width="4.5" stroke="rgba(69, 76, 90, 1)"></path><path d="M1140.75 391.5 a6.75 6.75 0 1 0 13.5 0 a6.75 6.75 0 1 0 -13.5 0zM1194.75 418.5 a6.75 6.75 0 1 0 13.5 0 a6.75 6.75 0 1 0 -13.5 0z" fill="rgba(69, 76, 90, 1)"></path><path d="M553.5 121.5L526.5 94.5L499.5 94.5" stroke-width="4.5" stroke="rgba(69, 76, 90, 1)"></path><path d="M546.75 121.5 a6.75 6.75 0 1 0 13.5 0 a6.75 6.75 0 1 0 -13.5 0zM492.75 94.5 a6.75 6.75 0 1 0 13.5 0 a6.75 6.75 0 1 0 -13.5 0z" fill="rgba(69, 76, 90, 1)"></path><path d="M1390.5 418.5L1390.5 337.5L1417.5 310.5" stroke-width="4.5" stroke="rgba(69, 76, 90, 1)"></path><path d="M1383.75 418.5 a6.75 6.75 0 1 0 13.5 0 a6.75 6.75 0 1 0 -13.5 0zM1410.75 310.5 a6.75 6.75 0 1 0 13.5 0 a6.75 6.75 0 1 0 -13.5 0z" fill="rgba(69, 76, 90, 1)"></path><path d="M445.5 13.5L445.5 40.5L391.5 94.5L391.5 229.5L364.5 256.5" stroke-width="4.5" stroke="rgba(69, 76, 90, 1)"></path><path d="M438.75 13.5 a6.75 6.75 0 1 0 13.5 0 a6.75 6.75 0 1 0 -13.5 0zM357.75 256.5 a6.75 6.75 0 1 0 13.5 0 a6.75 6.75 0 1 0 -13.5 0z" fill="rgba(69, 76, 90, 1)"></path><path d="M634.5 526.5L688.5 472.5L715.5 472.5" stroke-width="4.5" stroke="rgba(69, 76, 90, 1)"></path><path d="M627.75 526.5 a6.75 6.75 0 1 0 13.5 0 a6.75 6.75 0 1 0 -13.5 0zM708.75 472.5 a6.75 6.75 0 1 0 13.5 0 a6.75 6.75 0 1 0 -13.5 0z" fill="rgba(69, 76, 90, 1)"></path><path d="M769.5 310.5L796.5 283.5L850.5 283.5L904.5 337.5L904.5 364.5" stroke-width="4.5" stroke="rgba(69, 76, 90, 1)"></path><path d="M762.75 310.5 a6.75 6.75 0 1 0 13.5 0 a6.75 6.75 0 1 0 -13.5 0zM897.75 364.5 a6.75 6.75 0 1 0 13.5 0 a6.75 6.75 0 1 0 -13.5 0z" fill="rgba(69, 76, 90, 1)"></path><path d="M283.5 94.5L337.5 40.5L337.5 13.5" stroke-width="4.5" stroke="rgba(69, 76, 90, 1)"></path><path d="M276.75 94.5 a6.75 6.75 0 1 0 13.5 0 a6.75 6.75 0 1 0 -13.5 0zM330.75 13.5 a6.75 6.75 0 1 0 13.5 0 a6.75 6.75 0 1 0 -13.5 0z" fill="rgba(69, 76, 90, 1)"></path><path d="M742.5 121.5L688.5 121.5L634.5 175.5L526.5 175.5" stroke-width="4.5" stroke="rgba(69, 76, 90, 1)"></path><path d="M735.75 121.5 a6.75 6.75 0 1 0 13.5 0 a6.75 6.75 0 1 0 -13.5 0zM519.75 175.5 a6.75 6.75 0 1 0 13.5 0 a6.75 6.75 0 1 0 -13.5 0z" fill="rgba(69, 76, 90, 1)"></path><path d="M283.5 553.5L202.5 472.5L175.5 472.5L94.5 553.5L67.5 553.5" stroke-width="4.5" stroke="rgba(69, 76, 90, 1)"></path><path d="M276.75 553.5 a6.75 6.75 0 1 0 13.5 0 a6.75 6.75 0 1 0 -13.5 0zM60.75 553.5 a6.75 6.75 0 1 0 13.5 0 a6.75 6.75 0 1 0 -13.5 0z" fill="rgba(69, 76, 90, 1)"></path><path d="M13.5 283.5L148.5 418.5L175.5 418.5" stroke-width="4.5" stroke="rgba(69, 76, 90, 1)"></path><path d="M6.75 283.5 a6.75 6.75 0 1 0 13.5 0 a6.75 6.75 0 1 0 -13.5 0zM168.75 418.5 a6.75 6.75 0 1 0 13.5 0 a6.75 6.75 0 1 0 -13.5 0z" fill="rgba(69, 76, 90, 1)"></path><path d="M634.5 553.5L688.5 499.5L715.5 499.5" stroke-width="4.5" stroke="rgba(69, 76, 90, 1)"></path><path d="M627.75 553.5 a6.75 6.75 0 1 0 13.5 0 a6.75 6.75 0 1 0 -13.5 0zM708.75 499.5 a6.75 6.75 0 1 0 13.5 0 a6.75 6.75 0 1 0 -13.5 0z" fill="rgba(69, 76, 90, 1)"></path><path d="M337.5 499.5L364.5 526.5L580.5 526.5L715.5 391.5L715.5 364.5" stroke-width="4.5" stroke="rgba(69, 76, 90, 1)"></path><path d="M330.75 499.5 a6.75 6.75 0 1 0 13.5 0 a6.75 6.75 0 1 0 -13.5 0zM708.75 364.5 a6.75 6.75 0 1 0 13.5 0 a6.75 6.75 0 1 0 -13.5 0z" fill="rgba(69, 76, 90, 1)"></path><path d="M553.5 94.5L553.5 40.5" stroke-width="4.5" stroke="rgba(69, 76, 90, 1)"></path><path d="M546.75 94.5 a6.75 6.75 0 1 0 13.5 0 a6.75 6.75 0 1 0 -13.5 0zM546.75 40.5 a6.75 6.75 0 1 0 13.5 0 a6.75 6.75 0 1 0 -13.5 0z" fill="rgba(69, 76, 90, 1)"></path><path d="M1255.5 40.5L1363.5 40.5" stroke-width="4.5" stroke="rgba(69, 76, 90, 1)"></path><path d="M1248.75 40.5 a6.75 6.75 0 1 0 13.5 0 a6.75 6.75 0 1 0 -13.5 0zM1356.75 40.5 a6.75 6.75 0 1 0 13.5 0 a6.75 6.75 0 1 0 -13.5 0z" fill="rgba(69, 76, 90, 1)"></path><path d="M472.5 472.5L418.5 418.5L391.5 418.5" stroke-width="4.5" stroke="rgba(69, 76, 90, 1)"></path><path d="M465.75 472.5 a6.75 6.75 0 1 0 13.5 0 a6.75 6.75 0 1 0 -13.5 0zM384.75 418.5 a6.75 6.75 0 1 0 13.5 0 a6.75 6.75 0 1 0 -13.5 0z" fill="rgba(69, 76, 90, 1)"></path><path d="M1201.5 229.5L1282.5 310.5L1336.5 310.5L1363.5 283.5L1363.5 256.5" stroke-width="4.5" stroke="rgba(69, 76, 90, 1)"></path><path d="M1194.75 229.5 a6.75 6.75 0 1 0 13.5 0 a6.75 6.75 0 1 0 -13.5 0zM1356.75 256.5 a6.75 6.75 0 1 0 13.5 0 a6.75 6.75 0 1 0 -13.5 0z" fill="rgba(69, 76, 90, 1)"></path><path d="M904.5 445.5L877.5 472.5L877.5 499.5" stroke-width="4.5" stroke="rgba(69, 76, 90, 1)"></path><path d="M897.75 445.5 a6.75 6.75 0 1 0 13.5 0 a6.75 6.75 0 1 0 -13.5 0zM870.75 499.5 a6.75 6.75 0 1 0 13.5 0 a6.75 6.75 0 1 0 -13.5 0z" fill="rgba(69, 76, 90, 1)"></path><path d="M796.5 391.5L796.5 337.5L823.5 310.5L850.5 310.5L877.5 337.5L877.5 364.5L850.5 391.5L823.5 391.5" stroke-width="4.5" stroke="rgba(69, 76, 90, 1)"></path><path d="M789.75 391.5 a6.75 6.75 0 1 0 13.5 0 a6.75 6.75 0 1 0 -13.5 0zM816.75 391.5 a6.75 6.75 0 1 0 13.5 0 a6.75 6.75 0 1 0 -13.5 0z" fill="rgba(69, 76, 90, 1)"></path><path d="M1174.5 121.5L1228.5 175.5L1228.5 229.5L1282.5 283.5L1336.5 283.5" stroke-width="4.5" stroke="rgba(69, 76, 90, 1)"></path><path d="M1167.75 121.5 a6.75 6.75 0 1 0 13.5 0 a6.75 6.75 0 1 0 -13.5 0zM1329.75 283.5 a6.75 6.75 0 1 0 13.5 0 a6.75 6.75 0 1 0 -13.5 0z" fill="rgba(69, 76, 90, 1)"></path><path d="M553.5 499.5L553.5 472.5L661.5 364.5L688.5 364.5" stroke-width="4.5" stroke="rgba(69, 76, 90, 1)"></path><path d="M546.75 499.5 a6.75 6.75 0 1 0 13.5 0 a6.75 6.75 0 1 0 -13.5 0zM681.75 364.5 a6.75 6.75 0 1 0 13.5 0 a6.75 6.75 0 1 0 -13.5 0z" fill="rgba(69, 76, 90, 1)"></path><path d="M94.5 310.5L67.5 283.5L40.5 283.5" stroke-width="4.5" stroke="rgba(69, 76, 90, 1)"></path><path d="M87.75 310.5 a6.75 6.75 0 1 0 13.5 0 a6.75 6.75 0 1 0 -13.5 0zM33.75 283.5 a6.75 6.75 0 1 0 13.5 0 a6.75 6.75 0 1 0 -13.5 0z" fill="rgba(69, 76, 90, 1)"></path><path d="M1309.5 256.5L1282.5 256.5L1255.5 229.5L1255.5 202.5" stroke-width="4.5" stroke="rgba(69, 76, 90, 1)"></path><path d="M1302.75 256.5 a6.75 6.75 0 1 0 13.5 0 a6.75 6.75 0 1 0 -13.5 0zM1248.75 202.5 a6.75 6.75 0 1 0 13.5 0 a6.75 6.75 0 1 0 -13.5 0z" fill="rgba(69, 76, 90, 1)"></path><path d="M1120.5 472.5L1093.5 445.5L931.5 445.5L904.5 472.5" stroke-width="4.5" stroke="rgba(69, 76, 90, 1)"></path><path d="M1113.75 472.5 a6.75 6.75 0 1 0 13.5 0 a6.75 6.75 0 1 0 -13.5 0zM897.75 472.5 a6.75 6.75 0 1 0 13.5 0 a6.75 6.75 0 1 0 -13.5 0z" fill="rgba(69, 76, 90, 1)"></path><path d="M1201.5 283.5L1201.5 256.5L1093.5 148.5L1066.5 148.5" stroke-width="4.5" stroke="rgba(69, 76, 90, 1)"></path><path d="M1194.75 283.5 a6.75 6.75 0 1 0 13.5 0 a6.75 6.75 0 1 0 -13.5 0zM1059.75 148.5 a6.75 6.75 0 1 0 13.5 0 a6.75 6.75 0 1 0 -13.5 0z" fill="rgba(69, 76, 90, 1)"></path><path d="M607.5 121.5L580.5 94.5L580.5 40.5" stroke-width="4.5" stroke="rgba(69, 76, 90, 1)"></path><path d="M600.75 121.5 a6.75 6.75 0 1 0 13.5 0 a6.75 6.75 0 1 0 -13.5 0zM573.75 40.5 a6.75 6.75 0 1 0 13.5 0 a6.75 6.75 0 1 0 -13.5 0z" fill="rgba(69, 76, 90, 1)"></path><path d="M1201.5 499.5L1255.5 445.5L1309.5 445.5L1417.5 553.5L1444.5 553.5" stroke-width="4.5" stroke="rgba(69, 76, 90, 1)"></path><path d="M1194.75 499.5 a6.75 6.75 0 1 0 13.5 0 a6.75 6.75 0 1 0 -13.5 0zM1437.75 553.5 a6.75 6.75 0 1 0 13.5 0 a6.75 6.75 0 1 0 -13.5 0z" fill="rgba(69, 76, 90, 1)"></path><path d="M1390.5 472.5L1390.5 499.5L1417.5 526.5L1444.5 526.5" stroke-width="4.5" stroke="rgba(69, 76, 90, 1)"></path><path d="M1383.75 472.5 a6.75 6.75 0 1 0 13.5 0 a6.75 6.75 0 1 0 -13.5 0zM1437.75 526.5 a6.75 6.75 0 1 0 13.5 0 a6.75 6.75 0 1 0 -13.5 0z" fill="rgba(69, 76, 90, 1)"></path><path d="M499.5 418.5L526.5 391.5L526.5 364.5" stroke-width="4.5" stroke="rgba(69, 76, 90, 1)"></path><path d="M492.75 418.5 a6.75 6.75 0 1 0 13.5 0 a6.75 6.75 0 1 0 -13.5 0zM519.75 364.5 a6.75 6.75 0 1 0 13.5 0 a6.75 6.75 0 1 0 -13.5 0z" fill="rgba(69, 76, 90, 1)"></path><path d="M904.5 283.5L931.5 310.5L958.5 310.5L985.5 283.5L985.5 256.5" stroke-width="4.5" stroke="rgba(69, 76, 90, 1)"></path><path d="M897.75 283.5 a6.75 6.75 0 1 0 13.5 0 a6.75 6.75 0 1 0 -13.5 0zM978.75 256.5 a6.75 6.75 0 1 0 13.5 0 a6.75 6.75 0 1 0 -13.5 0z" fill="rgba(69, 76, 90, 1)"></path><path d="M769.5 202.5L823.5 202.5" stroke-width="4.5" stroke="rgba(69, 76, 90, 1)"></path><path d="M762.75 202.5 a6.75 6.75 0 1 0 13.5 0 a6.75 6.75 0 1 0 -13.5 0zM816.75 202.5 a6.75 6.75 0 1 0 13.5 0 a6.75 6.75 0 1 0 -13.5 0z" fill="rgba(69, 76, 90, 1)"></path><path d="M1444.5 418.5L1417.5 418.5L1390.5 445.5L1363.5 445.5" stroke-width="4.5" stroke="rgba(69, 76, 90, 1)"></path><path d="M1437.75 418.5 a6.75 6.75 0 1 0 13.5 0 a6.75 6.75 0 1 0 -13.5 0zM1356.75 445.5 a6.75 6.75 0 1 0 13.5 0 a6.75 6.75 0 1 0 -13.5 0z" fill="rgba(69, 76, 90, 1)"></path><path d="M121.5 40.5L13.5 148.5L13.5 256.5" stroke-width="4.5" stroke="rgba(69, 76, 90, 1)"></path><path d="M114.75 40.5 a6.75 6.75 0 1 0 13.5 0 a6.75 6.75 0 1 0 -13.5 0zM6.75 256.5 a6.75 6.75 0 1 0 13.5 0 a6.75 6.75 0 1 0 -13.5 0z" fill="rgba(69, 76, 90, 1)"></path><path d="M1417.5 499.5L1444.5 472.5L1444.5 445.5" stroke-width="4.5" stroke="rgba(69, 76, 90, 1)"></path><path d="M1410.75 499.5 a6.75 6.75 0 1 0 13.5 0 a6.75 6.75 0 1 0 -13.5 0zM1437.75 445.5 a6.75 6.75 0 1 0 13.5 0 a6.75 6.75 0 1 0 -13.5 0z" fill="rgba(69, 76, 90, 1)"></path><path d="M391.5 67.5L418.5 40.5L418.5 13.5" stroke-width="4.5" stroke="rgba(69, 76, 90, 1)"></path><path d="M384.75 67.5 a6.75 6.75 0 1 0 13.5 0 a6.75 6.75 0 1 0 -13.5 0zM411.75 13.5 a6.75 6.75 0 1 0 13.5 0 a6.75 6.75 0 1 0 -13.5 0z" fill="rgba(69, 76, 90, 1)"></path><path d="M1363.5 175.5L1417.5 175.5" stroke-width="4.5" stroke="rgba(69, 76, 90, 1)"></path><path d="M1356.75 175.5 a6.75 6.75 0 1 0 13.5 0 a6.75 6.75 0 1 0 -13.5 0zM1410.75 175.5 a6.75 6.75 0 1 0 13.5 0 a6.75 6.75 0 1 0 -13.5 0z" fill="rgba(69, 76, 90, 1)"></path><path d="M13.5 13.5L13.5 121.5" stroke-width="4.5" stroke="rgba(69, 76, 90, 1)"></path><path d="M6.75 13.5 a6.75 6.75 0 1 0 13.5 0 a6.75 6.75 0 1 0 -13.5 0zM6.75 121.5 a6.75 6.75 0 1 0 13.5 0 a6.75 6.75 0 1 0 -13.5 0z" fill="rgba(69, 76, 90, 1)"></path><path d="M445.5 256.5L418.5 283.5L391.5 283.5" stroke-width="4.5" stroke="rgba(69, 76, 90, 1)"></path><path d="M438.75 256.5 a6.75 6.75 0 1 0 13.5 0 a6.75 6.75 0 1 0 -13.5 0zM384.75 283.5 a6.75 6.75 0 1 0 13.5 0 a6.75 6.75 0 1 0 -13.5 0z" fill="rgba(69, 76, 90, 1)"></path><path d="M202.5 526.5L229.5 553.5L256.5 553.5" stroke-width="4.5" stroke="rgba(69, 76, 90, 1)"></path><path d="M195.75 526.5 a6.75 6.75 0 1 0 13.5 0 a6.75 6.75 0 1 0 -13.5 0zM249.75 553.5 a6.75 6.75 0 1 0 13.5 0 a6.75 6.75 0 1 0 -13.5 0z" fill="rgba(69, 76, 90, 1)"></path><path d="M1255.5 337.5L1309.5 337.5" stroke-width="4.5" stroke="rgba(69, 76, 90, 1)"></path><path d="M1248.75 337.5 a6.75 6.75 0 1 0 13.5 0 a6.75 6.75 0 1 0 -13.5 0zM1302.75 337.5 a6.75 6.75 0 1 0 13.5 0 a6.75 6.75 0 1 0 -13.5 0z" fill="rgba(69, 76, 90, 1)"></path><path d="M1120.5 202.5L1093.5 202.5L1066.5 175.5" stroke-width="4.5" stroke="rgba(69, 76, 90, 1)"></path><path d="M1113.75 202.5 a6.75 6.75 0 1 0 13.5 0 a6.75 6.75 0 1 0 -13.5 0zM1059.75 175.5 a6.75 6.75 0 1 0 13.5 0 a6.75 6.75 0 1 0 -13.5 0z" fill="rgba(69, 76, 90, 1)"></path><path d="M13.5 472.5L13.5 553.5" stroke-width="4.5" stroke="rgba(69, 76, 90, 1)"></path><path d="M6.75 472.5 a6.75 6.75 0 1 0 13.5 0 a6.75 6.75 0 1 0 -13.5 0zM6.75 553.5 a6.75 6.75 0 1 0 13.5 0 a6.75 6.75 0 1 0 -13.5 0z" fill="rgba(69, 76, 90, 1)"></path><path d="M148.5 553.5L202.5 499.5" stroke-width="4.5" stroke="rgba(69, 76, 90, 1)"></path><path d="M141.75 553.5 a6.75 6.75 0 1 0 13.5 0 a6.75 6.75 0 1 0 -13.5 0zM195.75 499.5 a6.75 6.75 0 1 0 13.5 0 a6.75 6.75 0 1 0 -13.5 0z" fill="rgba(69, 76, 90, 1)"></path><path d="M1228.5 364.5L1282.5 364.5" stroke-width="4.5" stroke="rgba(69, 76, 90, 1)"></path><path d="M1221.75 364.5 a6.75 6.75 0 1 0 13.5 0 a6.75 6.75 0 1 0 -13.5 0zM1275.75 364.5 a6.75 6.75 0 1 0 13.5 0 a6.75 6.75 0 1 0 -13.5 0z" fill="rgba(69, 76, 90, 1)"></path><path d="M958.5 283.5L931.5 283.5L904.5 256.5L877.5 256.5" stroke-width="4.5" stroke="rgba(69, 76, 90, 1)"></path><path d="M951.75 283.5 a6.75 6.75 0 1 0 13.5 0 a6.75 6.75 0 1 0 -13.5 0zM870.75 256.5 a6.75 6.75 0 1 0 13.5 0 a6.75 6.75 0 1 0 -13.5 0z" fill="rgba(69, 76, 90, 1)"></path><path d="M1147.5 175.5L1174.5 202.5L1201.5 202.5" stroke-width="4.5" stroke="rgba(69, 76, 90, 1)"></path><path d="M1140.75 175.5 a6.75 6.75 0 1 0 13.5 0 a6.75 6.75 0 1 0 -13.5 0zM1194.75 202.5 a6.75 6.75 0 1 0 13.5 0 a6.75 6.75 0 1 0 -13.5 0z" fill="rgba(69, 76, 90, 1)"></path><path d="M310.5 499.5L310.5 391.5" stroke-width="4.5" stroke="rgba(69, 76, 90, 1)"></path><path d="M303.75 499.5 a6.75 6.75 0 1 0 13.5 0 a6.75 6.75 0 1 0 -13.5 0zM303.75 391.5 a6.75 6.75 0 1 0 13.5 0 a6.75 6.75 0 1 0 -13.5 0z" fill="rgba(69, 76, 90, 1)"></path><path d="M1039.5 337.5L1093.5 391.5L1120.5 391.5L1147.5 364.5" stroke-width="4.5" stroke="rgba(69, 76, 90, 1)"></path><path d="M1032.75 337.5 a6.75 6.75 0 1 0 13.5 0 a6.75 6.75 0 1 0 -13.5 0zM1140.75 364.5 a6.75 6.75 0 1 0 13.5 0 a6.75 6.75 0 1 0 -13.5 0z" fill="rgba(69, 76, 90, 1)"></path><path d="M67.5 472.5L67.5 526.5" stroke-width="4.5" stroke="rgba(69, 76, 90, 1)"></path><path d="M60.75 472.5 a6.75 6.75 0 1 0 13.5 0 a6.75 6.75 0 1 0 -13.5 0zM60.75 526.5 a6.75 6.75 0 1 0 13.5 0 a6.75 6.75 0 1 0 -13.5 0z" fill="rgba(69, 76, 90, 1)"></path><path d="M1309.5 553.5L1255.5 499.5L1255.5 472.5" stroke-width="4.5" stroke="rgba(69, 76, 90, 1)"></path><path d="M1302.75 553.5 a6.75 6.75 0 1 0 13.5 0 a6.75 6.75 0 1 0 -13.5 0zM1248.75 472.5 a6.75 6.75 0 1 0 13.5 0 a6.75 6.75 0 1 0 -13.5 0z" fill="rgba(69, 76, 90, 1)"></path><path d="M607.5 472.5L607.5 445.5L661.5 391.5L688.5 391.5" stroke-width="4.5" stroke="rgba(69, 76, 90, 1)"></path><path d="M600.75 472.5 a6.75 6.75 0 1 0 13.5 0 a6.75 6.75 0 1 0 -13.5 0zM681.75 391.5 a6.75 6.75 0 1 0 13.5 0 a6.75 6.75 0 1 0 -13.5 0z" fill="rgba(69, 76, 90, 1)"></path><path d="M1336.5 121.5L1336.5 175.5" stroke-width="4.5" stroke="rgba(69, 76, 90, 1)"></path><path d="M1329.75 121.5 a6.75 6.75 0 1 0 13.5 0 a6.75 6.75 0 1 0 -13.5 0zM1329.75 175.5 a6.75 6.75 0 1 0 13.5 0 a6.75 6.75 0 1 0 -13.5 0z" fill="rgba(69, 76, 90, 1)"></path><path d="M148.5 391.5L148.5 364.5L121.5 337.5L94.5 337.5" stroke-width="4.5" stroke="rgba(69, 76, 90, 1)"></path><path d="M141.75 391.5 a6.75 6.75 0 1 0 13.5 0 a6.75 6.75 0 1 0 -13.5 0zM87.75 337.5 a6.75 6.75 0 1 0 13.5 0 a6.75 6.75 0 1 0 -13.5 0z" fill="rgba(69, 76, 90, 1)"></path><path d="M1093.5 472.5L1066.5 499.5L1039.5 499.5" stroke-width="4.5" stroke="rgba(69, 76, 90, 1)"></path><path d="M1086.75 472.5 a6.75 6.75 0 1 0 13.5 0 a6.75 6.75 0 1 0 -13.5 0zM1032.75 499.5 a6.75 6.75 0 1 0 13.5 0 a6.75 6.75 0 1 0 -13.5 0z" fill="rgba(69, 76, 90, 1)"></path><path d="M985.5 40.5L1093.5 40.5" stroke-width="4.5" stroke="rgba(69, 76, 90, 1)"></path><path d="M978.75 40.5 a6.75 6.75 0 1 0 13.5 0 a6.75 6.75 0 1 0 -13.5 0zM1086.75 40.5 a6.75 6.75 0 1 0 13.5 0 a6.75 6.75 0 1 0 -13.5 0z" fill="rgba(69, 76, 90, 1)"></path><path d="M1012.5 364.5L1039.5 364.5L1066.5 391.5" stroke-width="4.5" stroke="rgba(69, 76, 90, 1)"></path><path d="M1005.75 364.5 a6.75 6.75 0 1 0 13.5 0 a6.75 6.75 0 1 0 -13.5 0zM1059.75 391.5 a6.75 6.75 0 1 0 13.5 0 a6.75 6.75 0 1 0 -13.5 0z" fill="rgba(69, 76, 90, 1)"></path><path d="M1120.5 364.5L1120.5 337.5L1093.5 310.5L1066.5 310.5" stroke-width="4.5" stroke="rgba(69, 76, 90, 1)"></path><path d="M1113.75 364.5 a6.75 6.75 0 1 0 13.5 0 a6.75 6.75 0 1 0 -13.5 0zM1059.75 310.5 a6.75 6.75 0 1 0 13.5 0 a6.75 6.75 0 1 0 -13.5 0z" fill="rgba(69, 76, 90, 1)"></path><path d="M13.5 310.5L13.5 445.5" stroke-width="4.5" stroke="rgba(69, 76, 90, 1)"></path><path d="M6.75 310.5 a6.75 6.75 0 1 0 13.5 0 a6.75 6.75 0 1 0 -13.5 0zM6.75 445.5 a6.75 6.75 0 1 0 13.5 0 a6.75 6.75 0 1 0 -13.5 0z" fill="rgba(69, 76, 90, 1)"></path><path d="M1228.5 553.5L1228.5 499.5" stroke-width="4.5" stroke="rgba(69, 76, 90, 1)"></path><path d="M1221.75 553.5 a6.75 6.75 0 1 0 13.5 0 a6.75 6.75 0 1 0 -13.5 0zM1221.75 499.5 a6.75 6.75 0 1 0 13.5 0 a6.75 6.75 0 1 0 -13.5 0z" fill="rgba(69, 76, 90, 1)"></path><path d="M1201.5 553.5L1174.5 553.5L1147.5 526.5" stroke-width="4.5" stroke="rgba(69, 76, 90, 1)"></path><path d="M1194.75 553.5 a6.75 6.75 0 1 0 13.5 0 a6.75 6.75 0 1 0 -13.5 0zM1140.75 526.5 a6.75 6.75 0 1 0 13.5 0 a6.75 6.75 0 1 0 -13.5 0z" fill="rgba(69, 76, 90, 1)"></path><path d="M715.5 13.5L661.5 13.5" stroke-width="4.5" stroke="rgba(69, 76, 90, 1)"></path><path d="M708.75 13.5 a6.75 6.75 0 1 0 13.5 0 a6.75 6.75 0 1 0 -13.5 0zM654.75 13.5 a6.75 6.75 0 1 0 13.5 0 a6.75 6.75 0 1 0 -13.5 0z" fill="rgba(69, 76, 90, 1)"></path><path d="M1363.5 94.5L1309.5 94.5L1282.5 121.5" stroke-width="4.5" stroke="rgba(69, 76, 90, 1)"></path><path d="M1356.75 94.5 a6.75 6.75 0 1 0 13.5 0 a6.75 6.75 0 1 0 -13.5 0zM1275.75 121.5 a6.75 6.75 0 1 0 13.5 0 a6.75 6.75 0 1 0 -13.5 0z" fill="rgba(69, 76, 90, 1)"></path><path d="M472.5 499.5L418.5 445.5" stroke-width="4.5" stroke="rgba(69, 76, 90, 1)"></path><path d="M465.75 499.5 a6.75 6.75 0 1 0 13.5 0 a6.75 6.75 0 1 0 -13.5 0zM411.75 445.5 a6.75 6.75 0 1 0 13.5 0 a6.75 6.75 0 1 0 -13.5 0z" fill="rgba(69, 76, 90, 1)"></path><path d="M661.5 553.5L715.5 553.5" stroke-width="4.5" stroke="rgba(69, 76, 90, 1)"></path><path d="M654.75 553.5 a6.75 6.75 0 1 0 13.5 0 a6.75 6.75 0 1 0 -13.5 0zM708.75 553.5 a6.75 6.75 0 1 0 13.5 0 a6.75 6.75 0 1 0 -13.5 0z" fill="rgba(69, 76, 90, 1)"></path><path d="M283.5 13.5L283.5 67.5" stroke-width="4.5" stroke="rgba(69, 76, 90, 1)"></path><path d="M276.75 13.5 a6.75 6.75 0 1 0 13.5 0 a6.75 6.75 0 1 0 -13.5 0zM276.75 67.5 a6.75 6.75 0 1 0 13.5 0 a6.75 6.75 0 1 0 -13.5 0z" fill="rgba(69, 76, 90, 1)"></path><path d="M229.5 391.5L283.5 391.5" stroke-width="4.5" stroke="rgba(69, 76, 90, 1)"></path><path d="M222.75 391.5 a6.75 6.75 0 1 0 13.5 0 a6.75 6.75 0 1 0 -13.5 0zM276.75 391.5 a6.75 6.75 0 1 0 13.5 0 a6.75 6.75 0 1 0 -13.5 0z" fill="rgba(69, 76, 90, 1)"></path></g></g><defs><mask id="SvgjsMask1190"><rect width="1440" height="560" fill="#ffffff"></rect></mask><mask id="SvgjsMask1191"><rect width="1440" height="560" fill="white"></rect><path d="M982.12 229.5 a3.38 3.38 0 1 0 6.76 0 a3.38 3.38 0 1 0 -6.76 0zM469.12 283.5 a3.38 3.38 0 1 0 6.76 0 a3.38 3.38 0 1 0 -6.76 0z" fill="black"></path><path d="M739.12 310.5 a3.38 3.38 0 1 0 6.76 0 a3.38 3.38 0 1 0 -6.76 0zM739.12 553.5 a3.38 3.38 0 1 0 6.76 0 a3.38 3.38 0 1 0 -6.76 0z" fill="black"></path><path d="M361.12 202.5 a3.38 3.38 0 1 0 6.76 0 a3.38 3.38 0 1 0 -6.76 0zM361.12 13.5 a3.38 3.38 0 1 0 6.76 0 a3.38 3.38 0 1 0 -6.76 0z" fill="black"></path><path d="M253.12 13.5 a3.38 3.38 0 1 0 6.76 0 a3.38 3.38 0 1 0 -6.76 0zM388.12 499.5 a3.38 3.38 0 1 0 6.76 0 a3.38 3.38 0 1 0 -6.76 0z" fill="black"></path><path d="M280.12 499.5 a3.38 3.38 0 1 0 6.76 0 a3.38 3.38 0 1 0 -6.76 0zM226.12 13.5 a3.38 3.38 0 1 0 6.76 0 a3.38 3.38 0 1 0 -6.76 0z" fill="black"></path><path d="M1306.12 364.5 a3.38 3.38 0 1 0 6.76 0 a3.38 3.38 0 1 0 -6.76 0zM1441.12 13.5 a3.38 3.38 0 1 0 6.76 0 a3.38 3.38 0 1 0 -6.76 0z" fill="black"></path><path d="M604.12 391.5 a3.38 3.38 0 1 0 6.76 0 a3.38 3.38 0 1 0 -6.76 0zM361.12 391.5 a3.38 3.38 0 1 0 6.76 0 a3.38 3.38 0 1 0 -6.76 0z" fill="black"></path><path d="M1333.12 418.5 a3.38 3.38 0 1 0 6.76 0 a3.38 3.38 0 1 0 -6.76 0zM820.12 40.5 a3.38 3.38 0 1 0 6.76 0 a3.38 3.38 0 1 0 -6.76 0z" fill="black"></path><path d="M1090.12 553.5 a3.38 3.38 0 1 0 6.76 0 a3.38 3.38 0 1 0 -6.76 0zM766.12 553.5 a3.38 3.38 0 1 0 6.76 0 a3.38 3.38 0 1 0 -6.76 0z" fill="black"></path><path d="M172.12 283.5 a3.38 3.38 0 1 0 6.76 0 a3.38 3.38 0 1 0 -6.76 0zM199.12 40.5 a3.38 3.38 0 1 0 6.76 0 a3.38 3.38 0 1 0 -6.76 0z" fill="black"></path><path d="M415.12 499.5 a3.38 3.38 0 1 0 6.76 0 a3.38 3.38 0 1 0 -6.76 0zM361.12 418.5 a3.38 3.38 0 1 0 6.76 0 a3.38 3.38 0 1 0 -6.76 0z" fill="black"></path><path d="M712.12 310.5 a3.38 3.38 0 1 0 6.76 0 a3.38 3.38 0 1 0 -6.76 0zM361.12 310.5 a3.38 3.38 0 1 0 6.76 0 a3.38 3.38 0 1 0 -6.76 0z" fill="black"></path><path d="M1360.12 391.5 a3.38 3.38 0 1 0 6.76 0 a3.38 3.38 0 1 0 -6.76 0zM1441.12 256.5 a3.38 3.38 0 1 0 6.76 0 a3.38 3.38 0 1 0 -6.76 0z" fill="black"></path><path d="M982.12 94.5 a3.38 3.38 0 1 0 6.76 0 a3.38 3.38 0 1 0 -6.76 0zM469.12 94.5 a3.38 3.38 0 1 0 6.76 0 a3.38 3.38 0 1 0 -6.76 0z" fill="black"></path><path d="M64.12 391.5 a3.38 3.38 0 1 0 6.76 0 a3.38 3.38 0 1 0 -6.76 0zM199.12 418.5 a3.38 3.38 0 1 0 6.76 0 a3.38 3.38 0 1 0 -6.76 0z" fill="black"></path><path d="M1333.12 256.5 a3.38 3.38 0 1 0 6.76 0 a3.38 3.38 0 1 0 -6.76 0zM928.12 13.5 a3.38 3.38 0 1 0 6.76 0 a3.38 3.38 0 1 0 -6.76 0z" fill="black"></path><path d="M118.12 121.5 a3.38 3.38 0 1 0 6.76 0 a3.38 3.38 0 1 0 -6.76 0zM172.12 121.5 a3.38 3.38 0 1 0 6.76 0 a3.38 3.38 0 1 0 -6.76 0z" fill="black"></path><path d="M1387.12 67.5 a3.38 3.38 0 1 0 6.76 0 a3.38 3.38 0 1 0 -6.76 0zM1117.12 13.5 a3.38 3.38 0 1 0 6.76 0 a3.38 3.38 0 1 0 -6.76 0z" fill="black"></path><path d="M631.12 94.5 a3.38 3.38 0 1 0 6.76 0 a3.38 3.38 0 1 0 -6.76 0zM874.12 202.5 a3.38 3.38 0 1 0 6.76 0 a3.38 3.38 0 1 0 -6.76 0z" fill="black"></path><path d="M847.12 526.5 a3.38 3.38 0 1 0 6.76 0 a3.38 3.38 0 1 0 -6.76 0zM1360.12 472.5 a3.38 3.38 0 1 0 6.76 0 a3.38 3.38 0 1 0 -6.76 0z" fill="black"></path><path d="M1387.12 256.5 a3.38 3.38 0 1 0 6.76 0 a3.38 3.38 0 1 0 -6.76 0zM1198.12 94.5 a3.38 3.38 0 1 0 6.76 0 a3.38 3.38 0 1 0 -6.76 0z" fill="black"></path><path d="M1117.12 94.5 a3.38 3.38 0 1 0 6.76 0 a3.38 3.38 0 1 0 -6.76 0zM955.12 40.5 a3.38 3.38 0 1 0 6.76 0 a3.38 3.38 0 1 0 -6.76 0z" fill="black"></path><path d="M820.12 94.5 a3.38 3.38 0 1 0 6.76 0 a3.38 3.38 0 1 0 -6.76 0zM847.12 202.5 a3.38 3.38 0 1 0 6.76 0 a3.38 3.38 0 1 0 -6.76 0z" fill="black"></path><path d="M766.12 121.5 a3.38 3.38 0 1 0 6.76 0 a3.38 3.38 0 1 0 -6.76 0zM361.12 283.5 a3.38 3.38 0 1 0 6.76 0 a3.38 3.38 0 1 0 -6.76 0z" fill="black"></path><path d="M37.12 337.5 a3.38 3.38 0 1 0 6.76 0 a3.38 3.38 0 1 0 -6.76 0zM37.12 553.5 a3.38 3.38 0 1 0 6.76 0 a3.38 3.38 0 1 0 -6.76 0z" fill="black"></path><path d="M496.12 121.5 a3.38 3.38 0 1 0 6.76 0 a3.38 3.38 0 1 0 -6.76 0zM496.12 175.5 a3.38 3.38 0 1 0 6.76 0 a3.38 3.38 0 1 0 -6.76 0z" fill="black"></path><path d="M1198.12 337.5 a3.38 3.38 0 1 0 6.76 0 a3.38 3.38 0 1 0 -6.76 0zM874.12 40.5 a3.38 3.38 0 1 0 6.76 0 a3.38 3.38 0 1 0 -6.76 0z" fill="black"></path><path d="M469.12 391.5 a3.38 3.38 0 1 0 6.76 0 a3.38 3.38 0 1 0 -6.76 0zM550.12 337.5 a3.38 3.38 0 1 0 6.76 0 a3.38 3.38 0 1 0 -6.76 0z" fill="black"></path><path d="M1360.12 148.5 a3.38 3.38 0 1 0 6.76 0 a3.38 3.38 0 1 0 -6.76 0zM1198.12 40.5 a3.38 3.38 0 1 0 6.76 0 a3.38 3.38 0 1 0 -6.76 0z" fill="black"></path><path d="M982.12 337.5 a3.38 3.38 0 1 0 6.76 0 a3.38 3.38 0 1 0 -6.76 0zM1063.12 283.5 a3.38 3.38 0 1 0 6.76 0 a3.38 3.38 0 1 0 -6.76 0z" fill="black"></path><path d="M982.12 391.5 a3.38 3.38 0 1 0 6.76 0 a3.38 3.38 0 1 0 -6.76 0zM496.12 283.5 a3.38 3.38 0 1 0 6.76 0 a3.38 3.38 0 1 0 -6.76 0z" fill="black"></path><path d="M631.12 148.5 a3.38 3.38 0 1 0 6.76 0 a3.38 3.38 0 1 0 -6.76 0zM793.12 94.5 a3.38 3.38 0 1 0 6.76 0 a3.38 3.38 0 1 0 -6.76 0z" fill="black"></path><path d="M199.12 445.5 a3.38 3.38 0 1 0 6.76 0 a3.38 3.38 0 1 0 -6.76 0zM712.12 418.5 a3.38 3.38 0 1 0 6.76 0 a3.38 3.38 0 1 0 -6.76 0z" fill="black"></path><path d="M226.12 364.5 a3.38 3.38 0 1 0 6.76 0 a3.38 3.38 0 1 0 -6.76 0zM307.12 175.5 a3.38 3.38 0 1 0 6.76 0 a3.38 3.38 0 1 0 -6.76 0z" fill="black"></path><path d="M577.12 364.5 a3.38 3.38 0 1 0 6.76 0 a3.38 3.38 0 1 0 -6.76 0zM712.12 337.5 a3.38 3.38 0 1 0 6.76 0 a3.38 3.38 0 1 0 -6.76 0z" fill="black"></path><path d="M145.12 175.5 a3.38 3.38 0 1 0 6.76 0 a3.38 3.38 0 1 0 -6.76 0zM199.12 121.5 a3.38 3.38 0 1 0 6.76 0 a3.38 3.38 0 1 0 -6.76 0z" fill="black"></path><path d="M1036.12 256.5 a3.38 3.38 0 1 0 6.76 0 a3.38 3.38 0 1 0 -6.76 0zM955.12 337.5 a3.38 3.38 0 1 0 6.76 0 a3.38 3.38 0 1 0 -6.76 0z" fill="black"></path><path d="M874.12 391.5 a3.38 3.38 0 1 0 6.76 0 a3.38 3.38 0 1 0 -6.76 0zM928.12 364.5 a3.38 3.38 0 1 0 6.76 0 a3.38 3.38 0 1 0 -6.76 0z" fill="black"></path><path d="M1117.12 418.5 a3.38 3.38 0 1 0 6.76 0 a3.38 3.38 0 1 0 -6.76 0zM766.12 526.5 a3.38 3.38 0 1 0 6.76 0 a3.38 3.38 0 1 0 -6.76 0z" fill="black"></path><path d="M280.12 337.5 a3.38 3.38 0 1 0 6.76 0 a3.38 3.38 0 1 0 -6.76 0zM118.12 283.5 a3.38 3.38 0 1 0 6.76 0 a3.38 3.38 0 1 0 -6.76 0z" fill="black"></path><path d="M766.12 148.5 a3.38 3.38 0 1 0 6.76 0 a3.38 3.38 0 1 0 -6.76 0zM712.12 202.5 a3.38 3.38 0 1 0 6.76 0 a3.38 3.38 0 1 0 -6.76 0z" fill="black"></path><path d="M415.12 121.5 a3.38 3.38 0 1 0 6.76 0 a3.38 3.38 0 1 0 -6.76 0zM469.12 13.5 a3.38 3.38 0 1 0 6.76 0 a3.38 3.38 0 1 0 -6.76 0z" fill="black"></path><path d="M847.12 499.5 a3.38 3.38 0 1 0 6.76 0 a3.38 3.38 0 1 0 -6.76 0zM793.12 445.5 a3.38 3.38 0 1 0 6.76 0 a3.38 3.38 0 1 0 -6.76 0z" fill="black"></path><path d="M37.12 67.5 a3.38 3.38 0 1 0 6.76 0 a3.38 3.38 0 1 0 -6.76 0zM172.12 13.5 a3.38 3.38 0 1 0 6.76 0 a3.38 3.38 0 1 0 -6.76 0z" fill="black"></path><path d="M658.12 283.5 a3.38 3.38 0 1 0 6.76 0 a3.38 3.38 0 1 0 -6.76 0zM523.12 283.5 a3.38 3.38 0 1 0 6.76 0 a3.38 3.38 0 1 0 -6.76 0z" fill="black"></path><path d="M1144.12 391.5 a3.38 3.38 0 1 0 6.76 0 a3.38 3.38 0 1 0 -6.76 0zM1198.12 418.5 a3.38 3.38 0 1 0 6.76 0 a3.38 3.38 0 1 0 -6.76 0z" fill="black"></path><path d="M550.12 121.5 a3.38 3.38 0 1 0 6.76 0 a3.38 3.38 0 1 0 -6.76 0zM496.12 94.5 a3.38 3.38 0 1 0 6.76 0 a3.38 3.38 0 1 0 -6.76 0z" fill="black"></path><path d="M1387.12 418.5 a3.38 3.38 0 1 0 6.76 0 a3.38 3.38 0 1 0 -6.76 0zM1414.12 310.5 a3.38 3.38 0 1 0 6.76 0 a3.38 3.38 0 1 0 -6.76 0z" fill="black"></path><path d="M442.12 13.5 a3.38 3.38 0 1 0 6.76 0 a3.38 3.38 0 1 0 -6.76 0zM361.12 256.5 a3.38 3.38 0 1 0 6.76 0 a3.38 3.38 0 1 0 -6.76 0z" fill="black"></path><path d="M631.12 526.5 a3.38 3.38 0 1 0 6.76 0 a3.38 3.38 0 1 0 -6.76 0zM712.12 472.5 a3.38 3.38 0 1 0 6.76 0 a3.38 3.38 0 1 0 -6.76 0z" fill="black"></path><path d="M766.12 310.5 a3.38 3.38 0 1 0 6.76 0 a3.38 3.38 0 1 0 -6.76 0zM901.12 364.5 a3.38 3.38 0 1 0 6.76 0 a3.38 3.38 0 1 0 -6.76 0z" fill="black"></path><path d="M280.12 94.5 a3.38 3.38 0 1 0 6.76 0 a3.38 3.38 0 1 0 -6.76 0zM334.12 13.5 a3.38 3.38 0 1 0 6.76 0 a3.38 3.38 0 1 0 -6.76 0z" fill="black"></path><path d="M739.12 121.5 a3.38 3.38 0 1 0 6.76 0 a3.38 3.38 0 1 0 -6.76 0zM523.12 175.5 a3.38 3.38 0 1 0 6.76 0 a3.38 3.38 0 1 0 -6.76 0z" fill="black"></path><path d="M280.12 553.5 a3.38 3.38 0 1 0 6.76 0 a3.38 3.38 0 1 0 -6.76 0zM64.12 553.5 a3.38 3.38 0 1 0 6.76 0 a3.38 3.38 0 1 0 -6.76 0z" fill="black"></path><path d="M10.12 283.5 a3.38 3.38 0 1 0 6.76 0 a3.38 3.38 0 1 0 -6.76 0zM172.12 418.5 a3.38 3.38 0 1 0 6.76 0 a3.38 3.38 0 1 0 -6.76 0z" fill="black"></path><path d="M631.12 553.5 a3.38 3.38 0 1 0 6.76 0 a3.38 3.38 0 1 0 -6.76 0zM712.12 499.5 a3.38 3.38 0 1 0 6.76 0 a3.38 3.38 0 1 0 -6.76 0z" fill="black"></path><path d="M334.12 499.5 a3.38 3.38 0 1 0 6.76 0 a3.38 3.38 0 1 0 -6.76 0zM712.12 364.5 a3.38 3.38 0 1 0 6.76 0 a3.38 3.38 0 1 0 -6.76 0z" fill="black"></path><path d="M550.12 94.5 a3.38 3.38 0 1 0 6.76 0 a3.38 3.38 0 1 0 -6.76 0zM550.12 40.5 a3.38 3.38 0 1 0 6.76 0 a3.38 3.38 0 1 0 -6.76 0z" fill="black"></path><path d="M1252.12 40.5 a3.38 3.38 0 1 0 6.76 0 a3.38 3.38 0 1 0 -6.76 0zM1360.12 40.5 a3.38 3.38 0 1 0 6.76 0 a3.38 3.38 0 1 0 -6.76 0z" fill="black"></path><path d="M469.12 472.5 a3.38 3.38 0 1 0 6.76 0 a3.38 3.38 0 1 0 -6.76 0zM388.12 418.5 a3.38 3.38 0 1 0 6.76 0 a3.38 3.38 0 1 0 -6.76 0z" fill="black"></path><path d="M1198.12 229.5 a3.38 3.38 0 1 0 6.76 0 a3.38 3.38 0 1 0 -6.76 0zM1360.12 256.5 a3.38 3.38 0 1 0 6.76 0 a3.38 3.38 0 1 0 -6.76 0z" fill="black"></path><path d="M901.12 445.5 a3.38 3.38 0 1 0 6.76 0 a3.38 3.38 0 1 0 -6.76 0zM874.12 499.5 a3.38 3.38 0 1 0 6.76 0 a3.38 3.38 0 1 0 -6.76 0z" fill="black"></path><path d="M793.12 391.5 a3.38 3.38 0 1 0 6.76 0 a3.38 3.38 0 1 0 -6.76 0zM820.12 391.5 a3.38 3.38 0 1 0 6.76 0 a3.38 3.38 0 1 0 -6.76 0z" fill="black"></path><path d="M1171.12 121.5 a3.38 3.38 0 1 0 6.76 0 a3.38 3.38 0 1 0 -6.76 0zM1333.12 283.5 a3.38 3.38 0 1 0 6.76 0 a3.38 3.38 0 1 0 -6.76 0z" fill="black"></path><path d="M550.12 499.5 a3.38 3.38 0 1 0 6.76 0 a3.38 3.38 0 1 0 -6.76 0zM685.12 364.5 a3.38 3.38 0 1 0 6.76 0 a3.38 3.38 0 1 0 -6.76 0z" fill="black"></path><path d="M91.12 310.5 a3.38 3.38 0 1 0 6.76 0 a3.38 3.38 0 1 0 -6.76 0zM37.12 283.5 a3.38 3.38 0 1 0 6.76 0 a3.38 3.38 0 1 0 -6.76 0z" fill="black"></path><path d="M1306.12 256.5 a3.38 3.38 0 1 0 6.76 0 a3.38 3.38 0 1 0 -6.76 0zM1252.12 202.5 a3.38 3.38 0 1 0 6.76 0 a3.38 3.38 0 1 0 -6.76 0z" fill="black"></path><path d="M1117.12 472.5 a3.38 3.38 0 1 0 6.76 0 a3.38 3.38 0 1 0 -6.76 0zM901.12 472.5 a3.38 3.38 0 1 0 6.76 0 a3.38 3.38 0 1 0 -6.76 0z" fill="black"></path><path d="M1198.12 283.5 a3.38 3.38 0 1 0 6.76 0 a3.38 3.38 0 1 0 -6.76 0zM1063.12 148.5 a3.38 3.38 0 1 0 6.76 0 a3.38 3.38 0 1 0 -6.76 0z" fill="black"></path><path d="M604.12 121.5 a3.38 3.38 0 1 0 6.76 0 a3.38 3.38 0 1 0 -6.76 0zM577.12 40.5 a3.38 3.38 0 1 0 6.76 0 a3.38 3.38 0 1 0 -6.76 0z" fill="black"></path><path d="M1198.12 499.5 a3.38 3.38 0 1 0 6.76 0 a3.38 3.38 0 1 0 -6.76 0zM1441.12 553.5 a3.38 3.38 0 1 0 6.76 0 a3.38 3.38 0 1 0 -6.76 0z" fill="black"></path><path d="M1387.12 472.5 a3.38 3.38 0 1 0 6.76 0 a3.38 3.38 0 1 0 -6.76 0zM1441.12 526.5 a3.38 3.38 0 1 0 6.76 0 a3.38 3.38 0 1 0 -6.76 0z" fill="black"></path><path d="M496.12 418.5 a3.38 3.38 0 1 0 6.76 0 a3.38 3.38 0 1 0 -6.76 0zM523.12 364.5 a3.38 3.38 0 1 0 6.76 0 a3.38 3.38 0 1 0 -6.76 0z" fill="black"></path><path d="M901.12 283.5 a3.38 3.38 0 1 0 6.76 0 a3.38 3.38 0 1 0 -6.76 0zM982.12 256.5 a3.38 3.38 0 1 0 6.76 0 a3.38 3.38 0 1 0 -6.76 0z" fill="black"></path><path d="M766.12 202.5 a3.38 3.38 0 1 0 6.76 0 a3.38 3.38 0 1 0 -6.76 0zM820.12 202.5 a3.38 3.38 0 1 0 6.76 0 a3.38 3.38 0 1 0 -6.76 0z" fill="black"></path><path d="M1441.12 418.5 a3.38 3.38 0 1 0 6.76 0 a3.38 3.38 0 1 0 -6.76 0zM1360.12 445.5 a3.38 3.38 0 1 0 6.76 0 a3.38 3.38 0 1 0 -6.76 0z" fill="black"></path><path d="M118.12 40.5 a3.38 3.38 0 1 0 6.76 0 a3.38 3.38 0 1 0 -6.76 0zM10.12 256.5 a3.38 3.38 0 1 0 6.76 0 a3.38 3.38 0 1 0 -6.76 0z" fill="black"></path><path d="M1414.12 499.5 a3.38 3.38 0 1 0 6.76 0 a3.38 3.38 0 1 0 -6.76 0zM1441.12 445.5 a3.38 3.38 0 1 0 6.76 0 a3.38 3.38 0 1 0 -6.76 0z" fill="black"></path><path d="M388.12 67.5 a3.38 3.38 0 1 0 6.76 0 a3.38 3.38 0 1 0 -6.76 0zM415.12 13.5 a3.38 3.38 0 1 0 6.76 0 a3.38 3.38 0 1 0 -6.76 0z" fill="black"></path><path d="M1360.12 175.5 a3.38 3.38 0 1 0 6.76 0 a3.38 3.38 0 1 0 -6.76 0zM1414.12 175.5 a3.38 3.38 0 1 0 6.76 0 a3.38 3.38 0 1 0 -6.76 0z" fill="black"></path><path d="M10.12 13.5 a3.38 3.38 0 1 0 6.76 0 a3.38 3.38 0 1 0 -6.76 0zM10.12 121.5 a3.38 3.38 0 1 0 6.76 0 a3.38 3.38 0 1 0 -6.76 0z" fill="black"></path><path d="M442.12 256.5 a3.38 3.38 0 1 0 6.76 0 a3.38 3.38 0 1 0 -6.76 0zM388.12 283.5 a3.38 3.38 0 1 0 6.76 0 a3.38 3.38 0 1 0 -6.76 0z" fill="black"></path><path d="M199.12 526.5 a3.38 3.38 0 1 0 6.76 0 a3.38 3.38 0 1 0 -6.76 0zM253.12 553.5 a3.38 3.38 0 1 0 6.76 0 a3.38 3.38 0 1 0 -6.76 0z" fill="black"></path><path d="M1252.12 337.5 a3.38 3.38 0 1 0 6.76 0 a3.38 3.38 0 1 0 -6.76 0zM1306.12 337.5 a3.38 3.38 0 1 0 6.76 0 a3.38 3.38 0 1 0 -6.76 0z" fill="black"></path><path d="M1117.12 202.5 a3.38 3.38 0 1 0 6.76 0 a3.38 3.38 0 1 0 -6.76 0zM1063.12 175.5 a3.38 3.38 0 1 0 6.76 0 a3.38 3.38 0 1 0 -6.76 0z" fill="black"></path><path d="M10.12 472.5 a3.38 3.38 0 1 0 6.76 0 a3.38 3.38 0 1 0 -6.76 0zM10.12 553.5 a3.38 3.38 0 1 0 6.76 0 a3.38 3.38 0 1 0 -6.76 0z" fill="black"></path><path d="M145.12 553.5 a3.38 3.38 0 1 0 6.76 0 a3.38 3.38 0 1 0 -6.76 0zM199.12 499.5 a3.38 3.38 0 1 0 6.76 0 a3.38 3.38 0 1 0 -6.76 0z" fill="black"></path><path d="M1225.12 364.5 a3.38 3.38 0 1 0 6.76 0 a3.38 3.38 0 1 0 -6.76 0zM1279.12 364.5 a3.38 3.38 0 1 0 6.76 0 a3.38 3.38 0 1 0 -6.76 0z" fill="black"></path><path d="M955.12 283.5 a3.38 3.38 0 1 0 6.76 0 a3.38 3.38 0 1 0 -6.76 0zM874.12 256.5 a3.38 3.38 0 1 0 6.76 0 a3.38 3.38 0 1 0 -6.76 0z" fill="black"></path><path d="M1144.12 175.5 a3.38 3.38 0 1 0 6.76 0 a3.38 3.38 0 1 0 -6.76 0zM1198.12 202.5 a3.38 3.38 0 1 0 6.76 0 a3.38 3.38 0 1 0 -6.76 0z" fill="black"></path><path d="M307.12 499.5 a3.38 3.38 0 1 0 6.76 0 a3.38 3.38 0 1 0 -6.76 0zM307.12 391.5 a3.38 3.38 0 1 0 6.76 0 a3.38 3.38 0 1 0 -6.76 0z" fill="black"></path><path d="M1036.12 337.5 a3.38 3.38 0 1 0 6.76 0 a3.38 3.38 0 1 0 -6.76 0zM1144.12 364.5 a3.38 3.38 0 1 0 6.76 0 a3.38 3.38 0 1 0 -6.76 0z" fill="black"></path><path d="M64.12 472.5 a3.38 3.38 0 1 0 6.76 0 a3.38 3.38 0 1 0 -6.76 0zM64.12 526.5 a3.38 3.38 0 1 0 6.76 0 a3.38 3.38 0 1 0 -6.76 0z" fill="black"></path><path d="M1306.12 553.5 a3.38 3.38 0 1 0 6.76 0 a3.38 3.38 0 1 0 -6.76 0zM1252.12 472.5 a3.38 3.38 0 1 0 6.76 0 a3.38 3.38 0 1 0 -6.76 0z" fill="black"></path><path d="M604.12 472.5 a3.38 3.38 0 1 0 6.76 0 a3.38 3.38 0 1 0 -6.76 0zM685.12 391.5 a3.38 3.38 0 1 0 6.76 0 a3.38 3.38 0 1 0 -6.76 0z" fill="black"></path><path d="M1333.12 121.5 a3.38 3.38 0 1 0 6.76 0 a3.38 3.38 0 1 0 -6.76 0zM1333.12 175.5 a3.38 3.38 0 1 0 6.76 0 a3.38 3.38 0 1 0 -6.76 0z" fill="black"></path><path d="M145.12 391.5 a3.38 3.38 0 1 0 6.76 0 a3.38 3.38 0 1 0 -6.76 0zM91.12 337.5 a3.38 3.38 0 1 0 6.76 0 a3.38 3.38 0 1 0 -6.76 0z" fill="black"></path><path d="M1090.12 472.5 a3.38 3.38 0 1 0 6.76 0 a3.38 3.38 0 1 0 -6.76 0zM1036.12 499.5 a3.38 3.38 0 1 0 6.76 0 a3.38 3.38 0 1 0 -6.76 0z" fill="black"></path><path d="M982.12 40.5 a3.38 3.38 0 1 0 6.76 0 a3.38 3.38 0 1 0 -6.76 0zM1090.12 40.5 a3.38 3.38 0 1 0 6.76 0 a3.38 3.38 0 1 0 -6.76 0z" fill="black"></path><path d="M1009.12 364.5 a3.38 3.38 0 1 0 6.76 0 a3.38 3.38 0 1 0 -6.76 0zM1063.12 391.5 a3.38 3.38 0 1 0 6.76 0 a3.38 3.38 0 1 0 -6.76 0z" fill="black"></path><path d="M1117.12 364.5 a3.38 3.38 0 1 0 6.76 0 a3.38 3.38 0 1 0 -6.76 0zM1063.12 310.5 a3.38 3.38 0 1 0 6.76 0 a3.38 3.38 0 1 0 -6.76 0z" fill="black"></path><path d="M10.12 310.5 a3.38 3.38 0 1 0 6.76 0 a3.38 3.38 0 1 0 -6.76 0zM10.12 445.5 a3.38 3.38 0 1 0 6.76 0 a3.38 3.38 0 1 0 -6.76 0z" fill="black"></path><path d="M1225.12 553.5 a3.38 3.38 0 1 0 6.76 0 a3.38 3.38 0 1 0 -6.76 0zM1225.12 499.5 a3.38 3.38 0 1 0 6.76 0 a3.38 3.38 0 1 0 -6.76 0z" fill="black"></path><path d="M1198.12 553.5 a3.38 3.38 0 1 0 6.76 0 a3.38 3.38 0 1 0 -6.76 0zM1144.12 526.5 a3.38 3.38 0 1 0 6.76 0 a3.38 3.38 0 1 0 -6.76 0z" fill="black"></path><path d="M712.12 13.5 a3.38 3.38 0 1 0 6.76 0 a3.38 3.38 0 1 0 -6.76 0zM658.12 13.5 a3.38 3.38 0 1 0 6.76 0 a3.38 3.38 0 1 0 -6.76 0z" fill="black"></path><path d="M1360.12 94.5 a3.38 3.38 0 1 0 6.76 0 a3.38 3.38 0 1 0 -6.76 0zM1279.12 121.5 a3.38 3.38 0 1 0 6.76 0 a3.38 3.38 0 1 0 -6.76 0z" fill="black"></path><path d="M469.12 499.5 a3.38 3.38 0 1 0 6.76 0 a3.38 3.38 0 1 0 -6.76 0zM415.12 445.5 a3.38 3.38 0 1 0 6.76 0 a3.38 3.38 0 1 0 -6.76 0z" fill="black"></path><path d="M658.12 553.5 a3.38 3.38 0 1 0 6.76 0 a3.38 3.38 0 1 0 -6.76 0zM712.12 553.5 a3.38 3.38 0 1 0 6.76 0 a3.38 3.38 0 1 0 -6.76 0z" fill="black"></path><path d="M280.12 13.5 a3.38 3.38 0 1 0 6.76 0 a3.38 3.38 0 1 0 -6.76 0zM280.12 67.5 a3.38 3.38 0 1 0 6.76 0 a3.38 3.38 0 1 0 -6.76 0z" fill="black"></path><path d="M226.12 391.5 a3.38 3.38 0 1 0 6.76 0 a3.38 3.38 0 1 0 -6.76 0zM280.12 391.5 a3.38 3.38 0 1 0 6.76 0 a3.38 3.38 0 1 0 -6.76 0z" fill="black"></path></mask></defs></svg>